<svg xmlns="http://www.w3.org/2000/svg" viewBox="0 0 480 360">
  <defs>
    <linearGradient id="agua-sensores-bg" x1="0" y1="0" x2="1" y2="1">
      <stop offset="0%" stop-color="#0f172a" />
      <stop offset="100%" stop-color="#1e3a8a" />
    </linearGradient>
    <linearGradient id="agua-sensores-field" x1="0" y1="0" x2="1" y2="0">
      <stop offset="0%" stop-color="#0ea5e9" />
      <stop offset="100%" stop-color="#2dd4bf" />
    </linearGradient>
  </defs>
  <rect width="480" height="360" rx="32" fill="url(#agua-sensores-bg)" />
  <path d="M40 280 Q160 220 240 240 T440 220 L440 340 L40 340 Z" fill="url(#agua-sensores-field)" opacity="0.75" />
  <g fill="#0f172a" opacity="0.5">
    <rect x="70" y="190" width="24" height="120" rx="10" />
    <rect x="140" y="150" width="28" height="160" rx="12" />
    <rect x="210" y="180" width="24" height="130" rx="10" />
    <rect x="280" y="160" width="26" height="150" rx="11" />
    <rect x="350" y="200" width="24" height="110" rx="10" />
  </g>
  <g fill="#f8fafc" opacity="0.9">
    <circle cx="82" cy="184" r="14" />
    <circle cx="154" cy="146" r="16" />
    <circle cx="222" cy="176" r="14" />
    <circle cx="292" cy="154" r="15" />
    <circle cx="362" cy="196" r="14" />
  </g>
  <g fill="none" stroke="#f8fafc" stroke-width="2" opacity="0.6">
    <path d="M82 184 Q120 136 154 146 T222 176" />
    <path d="M222 176 Q256 136 292 154 T362 196" />
  </g>
</svg>
