<svg xmlns="http://www.w3.org/2000/svg" viewBox="0 0 800 600">
  <defs>
    <linearGradient id="agua-sky" x1="0" y1="0" x2="0" y2="1">
      <stop offset="0%" stop-color="#0f172a" />
      <stop offset="45%" stop-color="#134e4a" />
      <stop offset="100%" stop-color="#1f8aad" />
    </linearGradient>
    <linearGradient id="agua-sea" x1="0" y1="0" x2="1" y2="1">
      <stop offset="0%" stop-color="#14b8a6" stop-opacity="0.95" />
      <stop offset="100%" stop-color="#22d3ee" stop-opacity="0.85" />
    </linearGradient>
    <linearGradient id="agua-panel" x1="0" y1="0" x2="1" y2="1">
      <stop offset="0%" stop-color="#38bdf8" />
      <stop offset="100%" stop-color="#0ea5e9" />
    </linearGradient>
    <linearGradient id="agua-sand" x1="0" y1="0" x2="1" y2="0">
      <stop offset="0%" stop-color="#fcd34d" stop-opacity="0.75" />
      <stop offset="100%" stop-color="#f97316" stop-opacity="0.7" />
    </linearGradient>
  </defs>
  <rect width="800" height="600" fill="url(#agua-sky)" />
  <path d="M0 360 Q200 320 400 360 T800 360 L800 600 L0 600 Z" fill="url(#agua-sand)" opacity="0.85" />
  <path d="M0 400 Q180 440 400 420 T800 430 L800 600 L0 600 Z" fill="url(#agua-sea)" opacity="0.88" />
  <g opacity="0.75">
    <path d="M120 340 L280 280 L360 320 L200 380 Z" fill="url(#agua-panel)" />
    <path d="M320 320 L480 260 L560 300 L400 360 Z" fill="url(#agua-panel)" transform="translate(40,20)" />
    <path d="M520 300 L660 250 L720 280 L580 340 Z" fill="url(#agua-panel)" transform="translate(20,10)" />
  </g>
  <g fill="#38f0ff" opacity="0.55">
    <circle cx="140" cy="160" r="6" />
    <circle cx="220" cy="120" r="4" />
    <circle cx="320" cy="150" r="5" />
    <circle cx="480" cy="90" r="4" />
    <circle cx="600" cy="140" r="5" />
    <circle cx="700" cy="110" r="3" />
  </g>
  <path d="M80 500 Q200 480 320 500 T560 500 T800 500" fill="none" stroke="#fef9c3" stroke-width="6" stroke-linecap="round" opacity="0.35" />
</svg>
