<svg xmlns="http://www.w3.org/2000/svg" viewBox="0 0 480 360">
  <defs>
    <linearGradient id="agua-humedal-sky" x1="0" y1="0" x2="0" y2="1">
      <stop offset="0%" stop-color="#0f172a" />
      <stop offset="100%" stop-color="#14532d" />
    </linearGradient>
    <linearGradient id="agua-humedal-water" x1="0" y1="0" x2="1" y2="1">
      <stop offset="0%" stop-color="#0ea5e9" />
      <stop offset="100%" stop-color="#22d3ee" />
    </linearGradient>
  </defs>
  <rect width="480" height="360" rx="32" fill="url(#agua-humedal-sky)" />
  <path d="M20 260 Q120 220 240 240 T460 230 L460 360 L20 360 Z" fill="url(#agua-humedal-water)" opacity="0.8" />
  <g fill="#14532d" opacity="0.75">
    <path d="M80 220 Q70 260 90 300 Q100 280 110 300 Q120 270 120 230 Z" />
    <path d="M160 210 Q150 270 170 320 Q180 290 190 320 Q200 280 200 220 Z" />
    <path d="M260 220 Q250 260 270 310 Q280 290 290 310 Q300 280 300 230 Z" />
    <path d="M340 210 Q330 260 350 310 Q360 290 368 310 Q378 280 378 220 Z" />
  </g>
  <g fill="#bbf7d0" opacity="0.75">
    <circle cx="120" cy="120" r="22" />
    <circle cx="200" cy="80" r="16" />
    <circle cx="280" cy="110" r="18" />
    <circle cx="360" cy="90" r="20" />
  </g>
  <path d="M60 300 Q150 280 240 300 T420 300" fill="none" stroke="#fef08a" stroke-width="6" stroke-linecap="round" opacity="0.4" />
</svg>
