<svg xmlns="http://www.w3.org/2000/svg" viewBox="0 0 640 480">
  <defs>
    <linearGradient id="agua-bg" x1="0" y1="0" x2="0" y2="1">
      <stop offset="0%" stop-color="#0f172a" />
      <stop offset="65%" stop-color="#0b3d4a" />
      <stop offset="100%" stop-color="#155e75" />
    </linearGradient>
    <linearGradient id="agua-wave" x1="0" y1="0" x2="1" y2="1">
      <stop offset="0%" stop-color="#1ecfe3" />
      <stop offset="100%" stop-color="#34d399" />
    </linearGradient>
    <linearGradient id="agua-plant" x1="0" y1="0" x2="1" y2="0">
      <stop offset="0%" stop-color="#0ea5e9" />
      <stop offset="100%" stop-color="#38bdf8" />
    </linearGradient>
  </defs>
  <rect width="640" height="480" fill="url(#agua-bg)" />
  <path d="M0 280 Q140 250 320 270 T640 260 L640 480 L0 480 Z" fill="url(#agua-wave)" opacity="0.85" />
  <g transform="translate(80,160)">
    <rect x="0" y="40" width="200" height="120" rx="18" fill="#0f172a" opacity="0.55" />
    <rect x="16" y="56" width="168" height="88" rx="14" fill="url(#agua-plant)" />
    <rect x="60" y="32" width="32" height="-48" rx="12" fill="#bae6fd" />
    <rect x="116" y="32" width="32" height="-68" rx="12" fill="#bfdbfe" />
    <g fill="#082f49" opacity="0.65">
      <rect x="36" y="86" width="28" height="28" rx="6" />
      <rect x="88" y="86" width="28" height="28" rx="6" />
      <rect x="140" y="86" width="28" height="28" rx="6" />
    </g>
  </g>
  <g transform="translate(360,170)">
    <rect x="0" y="52" width="200" height="110" rx="18" fill="#0f172a" opacity="0.5" />
    <rect x="16" y="70" width="168" height="70" rx="14" fill="#0ea5e9" opacity="0.8" />
    <rect x="64" y="24" width="72" height="64" rx="16" fill="#38bdf8" />
    <circle cx="100" cy="56" r="18" fill="#0f172a" opacity="0.35" />
    <circle cx="100" cy="56" r="12" fill="#bae6fd" />
  </g>
  <path d="M40 420 Q180 400 320 420 T600 420" fill="none" stroke="#fef9c3" stroke-width="8" stroke-linecap="round" opacity="0.25" />
</svg>
