<svg xmlns="http://www.w3.org/2000/svg" viewBox="0 0 800 600">
  <defs>
    <linearGradient id="aire-sky" x1="0" y1="0" x2="1" y2="1">
      <stop offset="0%" stop-color="#0f172a" />
      <stop offset="100%" stop-color="#1d4ed8" />
    </linearGradient>
    <linearGradient id="aire-build" x1="0" y1="0" x2="0" y2="1">
      <stop offset="0%" stop-color="#38bdf8" />
      <stop offset="100%" stop-color="#0ea5e9" />
    </linearGradient>
    <linearGradient id="aire-ground" x1="0" y1="0" x2="1" y2="0">
      <stop offset="0%" stop-color="#1e293b" />
      <stop offset="100%" stop-color="#0f172a" />
    </linearGradient>
  </defs>
  <rect width="800" height="600" fill="url(#aire-sky)" />
  <g opacity="0.85">
    <rect x="120" y="220" width="160" height="220" rx="24" fill="url(#aire-build)" />
    <rect x="320" y="180" width="180" height="260" rx="28" fill="url(#aire-build)" opacity="0.8" />
    <rect x="540" y="240" width="140" height="200" rx="20" fill="url(#aire-build)" opacity="0.7" />
    <g fill="#0f172a" opacity="0.4">
      <rect x="156" y="260" width="32" height="48" rx="8" />
      <rect x="204" y="260" width="32" height="48" rx="8" />
      <rect x="156" y="332" width="32" height="48" rx="8" />
      <rect x="204" y="332" width="32" height="48" rx="8" />
      <rect x="358" y="220" width="44" height="60" rx="12" />
      <rect x="414" y="220" width="44" height="60" rx="12" />
      <rect x="470" y="220" width="44" height="60" rx="12" />
    </g>
  </g>
  <path d="M0 420 Q200 380 400 420 T800 420 L800 600 L0 600 Z" fill="url(#aire-ground)" opacity="0.85" />
  <g fill="none" stroke="#bfdbfe" stroke-width="8" opacity="0.6" stroke-linecap="round">
    <path d="M120 180 Q240 140 360 180 T600 180" />
    <path d="M80 130 Q220 80 360 130 T720 140" />
  </g>
  <g fill="#e0f2fe" opacity="0.9">
    <circle cx="200" cy="120" r="12" />
    <circle cx="320" cy="90" r="16" />
    <circle cx="440" cy="120" r="14" />
    <circle cx="560" cy="100" r="18" />
    <circle cx="680" cy="130" r="14" />
  </g>
</svg>
