<svg xmlns="http://www.w3.org/2000/svg" viewBox="0 0 480 360">
  <defs>
    <linearGradient id="aire-com-bg" x1="0" y1="0" x2="1" y2="1">
      <stop offset="0%" stop-color="#0f172a" />
      <stop offset="100%" stop-color="#4338ca" />
    </linearGradient>
  </defs>
  <rect width="480" height="360" rx="32" fill="url(#aire-com-bg)" />
  <g transform="translate(70,140)" opacity="0.85">
    <circle cx="60" cy="40" r="40" fill="#38bdf8" />
    <circle cx="160" cy="34" r="46" fill="#22d3ee" />
    <circle cx="260" cy="46" r="38" fill="#818cf8" />
    <circle cx="340" cy="34" r="42" fill="#a855f7" />
  </g>
  <g transform="translate(60,180)" fill="#0f172a" opacity="0.45">
    <rect x="0" y="0" width="120" height="120" rx="24" />
    <rect x="130" y="0" width="120" height="120" rx="24" />
    <rect x="260" y="0" width="120" height="120" rx="24" />
  </g>
  <g transform="translate(60,188)" fill="#f8fafc" opacity="0.9">
    <rect x="18" y="16" width="84" height="60" rx="18" />
    <rect x="148" y="16" width="84" height="60" rx="18" />
    <rect x="278" y="16" width="84" height="60" rx="18" />
  </g>
  <g fill="#bfdbfe" opacity="0.6" stroke="#bfdbfe" stroke-width="4" stroke-linecap="round">
    <path d="M120 120 Q200 80 280 120 T400 120" fill="none" />
    <circle cx="120" cy="120" r="6" />
    <circle cx="200" cy="90" r="6" />
    <circle cx="280" cy="120" r="6" />
    <circle cx="360" cy="90" r="6" />
    <circle cx="400" cy="120" r="6" />
  </g>
</svg>
