<svg xmlns="http://www.w3.org/2000/svg" viewBox="0 0 480 360">
  <defs>
    <linearGradient id="aire-sensores-bg" x1="0" y1="0" x2="1" y2="1">
      <stop offset="0%" stop-color="#0f172a" />
      <stop offset="100%" stop-color="#1e40af" />
    </linearGradient>
  </defs>
  <rect width="480" height="360" rx="32" fill="url(#aire-sensores-bg)" />
  <g transform="translate(80,80)">
    <rect x="0" y="40" width="120" height="160" rx="24" fill="#1e3a8a" opacity="0.75" />
    <rect x="18" y="62" width="84" height="116" rx="18" fill="#38bdf8" />
    <circle cx="60" cy="120" r="28" fill="#0f172a" opacity="0.4" />
    <circle cx="60" cy="120" r="20" fill="#f8fafc" />
    <circle cx="60" cy="120" r="10" fill="#0ea5e9" />
  </g>
  <g transform="translate(220,60)">
    <rect x="0" y="60" width="160" height="180" rx="28" fill="#1e3a8a" opacity="0.65" />
    <rect x="24" y="92" width="112" height="120" rx="20" fill="#22d3ee" />
    <path d="M40 160 L120 120" stroke="#f8fafc" stroke-width="8" stroke-linecap="round" />
    <path d="M40 130 L120 90" stroke="#bae6fd" stroke-width="6" stroke-linecap="round" />
    <circle cx="120" cy="90" r="12" fill="#bae6fd" />
    <circle cx="120" cy="120" r="12" fill="#f8fafc" />
  </g>
  <g fill="none" stroke="#bfdbfe" stroke-width="6" opacity="0.6" stroke-linecap="round">
    <path d="M120 60 Q200 20 280 60 T400 60" />
    <path d="M100 280 Q220 240 340 280 T440 280" />
  </g>
</svg>
