<svg xmlns="http://www.w3.org/2000/svg" viewBox="0 0 640 480">
  <defs>
    <linearGradient id="aire-monitor-bg" x1="0" y1="0" x2="0" y2="1">
      <stop offset="0%" stop-color="#0f172a" />
      <stop offset="100%" stop-color="#1e40af" />
    </linearGradient>
    <linearGradient id="aire-monitor-device" x1="0" y1="0" x2="1" y2="1">
      <stop offset="0%" stop-color="#38bdf8" />
      <stop offset="100%" stop-color="#22d3ee" />
    </linearGradient>
  </defs>
  <rect width="640" height="480" fill="url(#aire-monitor-bg)" />
  <g transform="translate(120,120)">
    <rect x="0" y="40" width="200" height="220" rx="28" fill="#111827" opacity="0.6" />
    <rect x="24" y="68" width="152" height="160" rx="22" fill="url(#aire-monitor-device)" />
    <rect x="60" y="24" width="80" height="-40" rx="20" fill="#bfdbfe" />
    <circle cx="100" cy="150" r="44" fill="#0f172a" opacity="0.3" />
    <circle cx="100" cy="150" r="30" fill="#f8fafc" />
    <circle cx="100" cy="150" r="18" fill="#0ea5e9" />
    <rect x="72" y="190" width="56" height="18" rx="8" fill="#0f172a" opacity="0.4" />
  </g>
  <g transform="translate(360,120)">
    <rect x="0" y="60" width="200" height="160" rx="24" fill="#0f172a" opacity="0.55" />
    <rect x="20" y="82" width="160" height="112" rx="20" fill="#1e40af" opacity="0.75" />
    <polyline points="40,150 80,120 120,140 160,110" fill="none" stroke="#bae6fd" stroke-width="6" stroke-linecap="round" stroke-linejoin="round" />
    <circle cx="80" cy="120" r="12" fill="#bae6fd" />
    <circle cx="160" cy="110" r="12" fill="#bae6fd" />
  </g>
</svg>
