<svg xmlns="http://www.w3.org/2000/svg" viewBox="0 0 800 600">
  <defs>
    <linearGradient id="bio-sky" x1="0" y1="0" x2="0" y2="1">
      <stop offset="0%" stop-color="#0f172a" />
      <stop offset="50%" stop-color="#14532d" />
      <stop offset="100%" stop-color="#166534" />
    </linearGradient>
    <linearGradient id="bio-canopy" x1="0" y1="0" x2="1" y2="1">
      <stop offset="0%" stop-color="#22c55e" />
      <stop offset="100%" stop-color="#16a34a" />
    </linearGradient>
  </defs>
  <rect width="800" height="600" fill="url(#bio-sky)" />
  <g opacity="0.85">
    <path d="M0 360 Q160 280 320 340 T640 300 L800 340 L800 600 L0 600 Z" fill="url(#bio-canopy)" />
    <path d="M0 420 Q120 360 260 400 T560 360 L800 380 L800 600 L0 600 Z" fill="#14532d" opacity="0.75" />
  </g>
  <g fill="#bbf7d0" opacity="0.85">
    <circle cx="120" cy="220" r="60" />
    <circle cx="260" cy="190" r="70" />
    <circle cx="420" cy="210" r="68" />
    <circle cx="560" cy="180" r="72" />
    <circle cx="700" cy="220" r="64" />
  </g>
  <g fill="#0f172a" opacity="0.45">
    <rect x="140" y="320" width="40" height="160" rx="16" />
    <rect x="280" y="310" width="44" height="170" rx="16" />
    <rect x="440" y="320" width="42" height="160" rx="16" />
    <rect x="600" y="330" width="44" height="150" rx="16" />
  </g>
  <path d="M80 420 Q200 380 320 410 T560 400 T760 420" fill="none" stroke="#fef9c3" stroke-width="8" stroke-linecap="round" opacity="0.3" />
</svg>
