<svg xmlns="http://www.w3.org/2000/svg" viewBox="0 0 640 480">
  <defs>
    <linearGradient id="city-mov-bg" x1="0" y1="0" x2="1" y2="1">
      <stop offset="0%" stop-color="#0f172a" />
      <stop offset="100%" stop-color="#1d4ed8" />
    </linearGradient>
  </defs>
  <rect width="640" height="480" fill="url(#city-mov-bg)" />
  <g fill="#0ea5e9" opacity="0.85">
    <rect x="80" y="240" width="120" height="140" rx="28" />
    <rect x="220" y="210" width="140" height="170" rx="30" />
    <rect x="380" y="240" width="120" height="140" rx="28" />
    <rect x="520" y="200" width="100" height="180" rx="30" />
  </g>
  <g fill="#0f172a" opacity="0.45">
    <rect x="108" y="270" width="64" height="32" rx="12" />
    <rect x="108" y="318" width="64" height="32" rx="12" />
    <rect x="256" y="246" width="80" height="40" rx="16" />
    <rect x="256" y="300" width="80" height="40" rx="16" />
    <rect x="408" y="276" width="64" height="32" rx="12" />
    <rect x="408" y="324" width="64" height="32" rx="12" />
  </g>
  <path d="M80 180 Q200 140 320 160 T560 150" fill="none" stroke="#10b981" stroke-width="10" stroke-linecap="round" opacity="0.7" />
  <path d="M60 220 Q200 260 340 240 T580 250" fill="none" stroke="#facc15" stroke-width="8" stroke-linecap="round" opacity="0.6" />
  <circle cx="200" cy="120" r="24" fill="#38bdf8" />
  <circle cx="340" cy="110" r="20" fill="#22d3ee" />
  <circle cx="480" cy="130" r="22" fill="#10b981" />
</svg>
