<svg xmlns="http://www.w3.org/2000/svg" viewBox="0 0 800 600">
  <defs>
    <linearGradient id="clima-sky" x1="0" y1="0" x2="0" y2="1">
      <stop offset="0%" stop-color="#0f172a" />
      <stop offset="100%" stop-color="#3b0764" />
    </linearGradient>
    <linearGradient id="clima-ground" x1="0" y1="0" x2="1" y2="1">
      <stop offset="0%" stop-color="#8b5cf6" />
      <stop offset="100%" stop-color="#ec4899" />
    </linearGradient>
  </defs>
  <rect width="800" height="600" fill="url(#clima-sky)" />
  <path d="M0 380 Q200 320 400 360 T800 340 L800 600 L0 600 Z" fill="url(#clima-ground)" opacity="0.85" />
  <g fill="#f8fafc" opacity="0.85">
    <circle cx="160" cy="220" r="54" />
    <circle cx="300" cy="200" r="60" />
    <circle cx="460" cy="220" r="56" />
    <circle cx="620" cy="200" r="60" />
  </g>
  <g fill="#0f172a" opacity="0.4">
    <rect x="180" y="320" width="50" height="150" rx="20" />
    <rect x="340" y="310" width="54" height="160" rx="22" />
    <rect x="500" y="320" width="52" height="150" rx="20" />
  </g>
  <path d="M80 420 Q220 380 360 410 T680 420" fill="none" stroke="#fef3c7" stroke-width="10" stroke-linecap="round" opacity="0.35" />
  <path d="M120 140 Q200 100 280 140 T440 110 T600 140" fill="none" stroke="#bae6fd" stroke-width="12" stroke-linecap="round" opacity="0.5" />
</svg>
