<svg xmlns="http://www.w3.org/2000/svg" viewBox="0 0 1600 1000" role="img" aria-labelledby="title desc">
  <title id="title">Horizonte sostenible con auroras y comunidades resilientes</title>
  <desc id="desc">Ilustración vectorial de un valle con edificios autosuficientes, energía renovable y personas conectadas por senderos iluminados bajo un cielo auroral.</desc>
  <defs>
    <linearGradient id="skyGradient" x1="0" y1="0" x2="0" y2="1">
      <stop offset="0%" stop-color="#0b1f45" />
      <stop offset="45%" stop-color="#143c82" />
      <stop offset="100%" stop-color="#2c7a7b" />
    </linearGradient>
    <radialGradient id="sunGlow" cx="0.5" cy="0.3" r="0.65">
      <stop offset="0%" stop-color="#fef3c7" stop-opacity="0.95" />
      <stop offset="60%" stop-color="#fbbf24" stop-opacity="0.45" />
      <stop offset="100%" stop-color="#fbbf24" stop-opacity="0" />
    </radialGradient>
    <linearGradient id="mountainGradient" x1="0" y1="0" x2="1" y2="1">
      <stop offset="0%" stop-color="#1f2937" />
      <stop offset="100%" stop-color="#374151" />
    </linearGradient>
    <linearGradient id="riverGradient" x1="0" y1="0" x2="1" y2="0">
      <stop offset="0%" stop-color="#60a5fa" />
      <stop offset="50%" stop-color="#22d3ee" />
      <stop offset="100%" stop-color="#06b6d4" />
    </linearGradient>
    <linearGradient id="fieldGradient" x1="0" y1="0" x2="0" y2="1">
      <stop offset="0%" stop-color="#4ade80" />
      <stop offset="100%" stop-color="#166534" />
    </linearGradient>
    <linearGradient id="auroraGradient" x1="0" y1="0" x2="1" y2="0">
      <stop offset="0%" stop-color="#34d399" stop-opacity="0.8" />
      <stop offset="50%" stop-color="#a855f7" stop-opacity="0.9" />
      <stop offset="100%" stop-color="#38bdf8" stop-opacity="0.85" />
    </linearGradient>
    <clipPath id="valleyClip">
      <path d="M0 540 Q180 480 320 500 T640 520 T960 500 T1280 520 T1600 500 V1000 H0Z" />
    </clipPath>
    <filter id="softGlow" x="-10%" y="-10%" width="120%" height="120%">
      <feGaussianBlur in="SourceGraphic" stdDeviation="20" result="blur" />
      <feMerge>
        <feMergeNode in="blur" />
        <feMergeNode in="SourceGraphic" />
      </feMerge>
    </filter>
    <pattern id="grid" width="80" height="80" patternUnits="userSpaceOnUse">
      <path d="M0 0H80V80H0Z" fill="none" stroke="rgba(255,255,255,0.08)" stroke-width="1" />
      <path d="M0 40H80" stroke="rgba(255,255,255,0.05)" stroke-width="1" />
      <path d="M40 0V80" stroke="rgba(255,255,255,0.05)" stroke-width="1" />
    </pattern>
  </defs>

  <rect width="1600" height="1000" fill="url(#skyGradient)" />
  <rect width="1600" height="1000" fill="url(#grid)" />
  <circle cx="1120" cy="240" r="360" fill="url(#sunGlow)" />

  <g filter="url(#softGlow)">
    <path d="M0 420 C240 360 480 420 800 340 C1120 260 1360 320 1600 260 V540 H0Z" fill="url(#auroraGradient)" opacity="0.7">
      <animate attributeName="d" dur="14s" repeatCount="indefinite" values="M0 420 C240 360 480 420 800 340 C1120 260 1360 320 1600 260 V540 H0Z; M0 400 C260 340 520 380 800 320 C1080 260 1340 320 1600 280 V540 H0Z; M0 420 C240 360 480 420 800 340 C1120 260 1360 320 1600 260 V540 H0Z" />
    </path>
  </g>

  <path d="M0 560 Q260 500 520 540 T1040 520 T1600 560 V1000 H0Z" fill="url(#mountainGradient)" opacity="0.9" />
  <g clip-path="url(#valleyClip)">
    <rect x="-20" y="520" width="1650" height="600" fill="url(#fieldGradient)" opacity="0.95" />
    <path d="M380 520 C420 640 460 720 520 820 C640 880 760 920 980 1000 H0Z" fill="url(#riverGradient)" opacity="0.85" />
  </g>

  <g fill="none" stroke="rgba(255,255,255,0.4)" stroke-width="4" stroke-linecap="round">
    <path d="M120 760 Q240 700 360 760 T600 760 T840 800 T1200 760 T1440 780" />
    <path d="M220 820 Q360 780 520 840 T760 860 T1000 840 T1320 860" stroke-opacity="0.6" stroke-dasharray="12 24" />
  </g>

  <g>
    <g transform="translate(280 620)">
      <rect x="-40" y="-120" width="160" height="220" rx="20" fill="#111827" opacity="0.95" />
      <rect x="-20" y="-60" width="120" height="80" rx="12" fill="#1f2937" />
      <g fill="#34d399">
        <circle cx="-4" cy="-28" r="6" />
        <circle cx="32" cy="-28" r="6" />
        <circle cx="68" cy="-28" r="6" />
      </g>
      <rect x="-10" y="20" width="140" height="12" rx="6" fill="#22d3ee" />
      <rect x="-10" y="44" width="140" height="12" rx="6" fill="#38bdf8" />
      <rect x="-10" y="68" width="140" height="12" rx="6" fill="#818cf8" />
    </g>

    <g transform="translate(620 660)">
      <rect x="-60" y="-140" width="200" height="240" rx="24" fill="#0f172a" />
      <rect x="-30" y="-100" width="140" height="70" rx="14" fill="#1e293b" />
      <rect x="-40" y="-10" width="180" height="120" rx="20" fill="#1f2937" />
      <rect x="-10" y="18" width="120" height="22" rx="11" fill="#fbbf24" />
      <rect x="-10" y="54" width="120" height="22" rx="11" fill="#22d3ee" />
      <rect x="-10" y="90" width="120" height="22" rx="11" fill="#34d399" />
      <g fill="#f9fafb" opacity="0.75">
        <circle cx="-32" cy="-84" r="6" />
        <circle cx="-10" cy="-84" r="6" />
        <circle cx="12" cy="-84" r="6" />
      </g>
    </g>

    <g transform="translate(980 700)">
      <rect x="-80" y="-160" width="220" height="280" rx="28" fill="#111827" />
      <rect x="-60" y="-120" width="180" height="120" rx="20" fill="#1f2937" />
      <rect x="-40" y="-96" width="140" height="72" rx="16" fill="#0f172a" />
      <rect x="-20" y="-70" width="100" height="26" rx="13" fill="#22d3ee" />
      <rect x="-40" y="24" width="180" height="160" rx="24" fill="#1f2937" />
      <g fill="#facc15">
        <circle cx="-20" cy="58" r="9" />
        <circle cx="30" cy="82" r="9" />
        <circle cx="80" cy="58" r="9" />
      </g>
      <rect x="-10" y="120" width="120" height="28" rx="14" fill="#34d399" />
    </g>
  </g>

  <g>
    <path d="M260 900 Q320 860 380 900" stroke="#facc15" stroke-width="8" fill="none" stroke-linecap="round" />
    <circle cx="320" cy="900" r="22" fill="#22d3ee" />
    <circle cx="320" cy="900" r="12" fill="#0f172a" />
    <circle cx="320" cy="900" r="5" fill="#f8fafc" />

    <path d="M560 860 Q640 820 720 860" stroke="#38bdf8" stroke-width="10" fill="none" stroke-linecap="round" />
    <circle cx="640" cy="860" r="26" fill="#fbbf24" />
    <circle cx="640" cy="860" r="14" fill="#0f172a" />
    <circle cx="640" cy="860" r="6" fill="#f8fafc" />

    <path d="M960 920 Q1040 880 1120 920" stroke="#34d399" stroke-width="12" fill="none" stroke-linecap="round" />
    <circle cx="1040" cy="920" r="28" fill="#38bdf8" />
    <circle cx="1040" cy="920" r="16" fill="#0f172a" />
    <circle cx="1040" cy="920" r="7" fill="#f8fafc" />
  </g>

  <g fill="none" stroke="#f8fafc" stroke-width="6" stroke-linecap="round" stroke-opacity="0.8">
    <path d="M380 760 C420 720 500 700 560 720" />
    <path d="M860 760 C900 720 980 700 1040 720" />
    <path d="M1180 780 C1240 740 1320 720 1380 740" />
  </g>

  <g fill="#f1f5f9" opacity="0.75">
    <circle cx="280" cy="220" r="8">
      <animate attributeName="r" dur="6s" values="6;9;6" repeatCount="indefinite" />
    </circle>
    <circle cx="460" cy="160" r="6">
      <animate attributeName="opacity" dur="8s" values="0.6;1;0.6" repeatCount="indefinite" />
    </circle>
    <circle cx="760" cy="200" r="10">
      <animate attributeName="r" dur="10s" values="8;12;8" repeatCount="indefinite" />
    </circle>
    <circle cx="1240" cy="140" r="6">
      <animate attributeName="opacity" dur="6s" values="0.5;1;0.5" repeatCount="indefinite" />
    </circle>
  </g>

  <g fill="none" stroke="#f8fafc" stroke-width="2" stroke-dasharray="6 18" opacity="0.6">
    <path d="M180 300 Q260 260 320 320 T460 320" />
    <path d="M540 260 Q640 220 720 300 T860 300" />
    <path d="M940 280 Q1040 240 1120 300 T1260 300" />
    <path d="M1240 360 Q1320 320 1400 360 T1520 360" />
  </g>
</svg>
