<svg xmlns="http://www.w3.org/2000/svg" width="480" height="360" viewBox="0 0 480 360" role="img" aria-labelledby="title desc">
  <title id="title">Ilustración de mapa en espera</title>
  <desc id="desc">Mapa abstracto con marcadores para invitar a seleccionar un reto.</desc>
  <defs>
    <linearGradient id="bg" x1="0%" y1="0%" x2="100%" y2="100%">
      <stop offset="0%" stop-color="#0f172a" stop-opacity="0.95" />
      <stop offset="100%" stop-color="#1d4ed8" stop-opacity="0.85" />
    </linearGradient>
    <linearGradient id="panel" x1="0%" y1="0%" x2="0%" y2="100%">
      <stop offset="0%" stop-color="#f8fafc" stop-opacity="0.9" />
      <stop offset="100%" stop-color="#cbd5f5" stop-opacity="0.85" />
    </linearGradient>
    <linearGradient id="pin" x1="0%" y1="0%" x2="100%" y2="100%">
      <stop offset="0%" stop-color="#38bdf8" />
      <stop offset="100%" stop-color="#0ea5e9" />
    </linearGradient>
    <filter id="glow" x="-15%" y="-15%" width="130%" height="130%">
      <feGaussianBlur stdDeviation="12" result="blur" />
      <feMerge>
        <feMergeNode in="blur" />
        <feMergeNode in="SourceGraphic" />
      </feMerge>
    </filter>
  </defs>
  <rect width="480" height="360" rx="36" fill="url(#bg)" />
  <g fill="#ffffff" opacity="0.18">
    <path d="M52 96h144c12 0 18 6 24 12l48 48c8 8 16 12 28 12h132" stroke="#fff" stroke-opacity="0.15" stroke-width="18" stroke-linecap="round" stroke-linejoin="round" fill="none" />
    <path d="M72 280h92c10 0 18-6 26-14l32-34c8-8 16-12 28-12h112" stroke="#fff" stroke-opacity="0.12" stroke-width="14" stroke-linecap="round" stroke-linejoin="round" fill="none" />
  </g>
  <g transform="translate(64 64)">
    <rect width="180" height="130" rx="20" fill="url(#panel)" opacity="0.9" />
    <path d="M32 76l28-32 28 32 24-20 24 20v20H32z" fill="#1d4ed8" opacity="0.18" />
    <rect x="32" y="28" width="116" height="12" rx="6" fill="#0f172a" opacity="0.25" />
    <rect x="32" y="48" width="92" height="10" rx="5" fill="#0f172a" opacity="0.18" />
    <rect x="32" y="100" width="84" height="10" rx="5" fill="#0f172a" opacity="0.18" />
  </g>
  <g transform="translate(290 118)">
    <circle cx="44" cy="44" r="44" fill="#1e293b" opacity="0.25" />
    <path d="M44 4c18 0 34 14 34 34 0 24-34 54-34 54S10 62 10 38C10 18 26 4 44 4z" fill="url(#pin)" />
    <circle cx="44" cy="38" r="10" fill="#fff" opacity="0.85" />
  </g>
  <g transform="translate(110 220)" filter="url(#glow)" opacity="0.9">
    <path d="M28 0c16 0 28 12 28 28s-28 52-28 52S0 44 0 28 12 0 28 0z" fill="#facc15" />
    <circle cx="28" cy="26" r="9" fill="#fff" opacity="0.9" />
  </g>
  <g opacity="0.35" stroke="#ffffff" stroke-width="2" stroke-dasharray="10 12" fill="none">
    <circle cx="80" cy="40" r="26" />
    <circle cx="400" cy="300" r="34" />
  </g>
</svg>
