<svg xmlns="http://www.w3.org/2000/svg" viewBox="0 0 960 640" role="img" aria-labelledby="title desc">
  <title id="title">Planta solar en el desierto de Atacama</title>
  <desc id="desc">Ilustración de paneles solares frente a montañas y un sol naciente.</desc>
  <defs>
    <linearGradient id="sky" x1="0" y1="0" x2="0" y2="1">
      <stop offset="0%" stop-color="#fcd34d" />
      <stop offset="60%" stop-color="#fde68a" />
      <stop offset="100%" stop-color="#fef3c7" />
    </linearGradient>
    <linearGradient id="sand" x1="0" y1="0" x2="1" y2="1">
      <stop offset="0%" stop-color="#f59e0b" />
      <stop offset="100%" stop-color="#fbbf24" />
    </linearGradient>
    <linearGradient id="panel" x1="0" y1="0" x2="0" y2="1">
      <stop offset="0%" stop-color="#3b82f6" />
      <stop offset="100%" stop-color="#1e40af" />
    </linearGradient>
  </defs>
  <rect width="960" height="640" fill="url(#sky)" />
  <path d="M0 420 L200 300 L420 360 L600 280 L820 360 L960 320 L960 640 L0 640 Z" fill="url(#sand)" />
  <g fill="#fff3" stroke="#ffffff22" stroke-width="2">
    <circle cx="720" cy="160" r="78" />
    <circle cx="720" cy="160" r="110" fill="none" />
  </g>
  <g transform="translate(80,360) skewX(-8)">
    <rect x="0" y="0" width="220" height="120" rx="10" fill="url(#panel)" />
    <line x1="0" y1="40" x2="220" y2="40" stroke="#60a5fa" stroke-width="2" />
    <line x1="0" y1="80" x2="220" y2="80" stroke="#60a5fa" stroke-width="2" />
  </g>
  <g transform="translate(320,400) skewX(-8)">
    <rect x="0" y="0" width="240" height="120" rx="10" fill="url(#panel)" />
    <line x1="0" y1="40" x2="240" y2="40" stroke="#60a5fa" stroke-width="2" />
    <line x1="0" y1="80" x2="240" y2="80" stroke="#60a5fa" stroke-width="2" />
  </g>
  <g transform="translate(600,360) skewX(-8)">
    <rect x="0" y="0" width="220" height="120" rx="10" fill="url(#panel)" />
    <line x1="0" y1="40" x2="220" y2="40" stroke="#60a5fa" stroke-width="2" />
    <line x1="0" y1="80" x2="220" y2="80" stroke="#60a5fa" stroke-width="2" />
  </g>
</svg>
